{"title":"The.Twilight.Saga.Breaking.Dawn.Part.2.2012.DVDRip.XviD-juggs","uid":8152156,"size":743471827,"categoryP":"video","categoryS":"movies","magnet":"?xt=urn:btih:a32b6807d3c5a26e02d33d610b8cd6caac0f34a5&amp;dn=The.Twilight.Saga.Breaking.Dawn.Part.2.2012.DVDRip.XviD-juggs&amp;tr=udp%3A%2F%2Ftracker.openbittorrent.com%3A80&amp;tr=udp%3A%2F%2Fopen.demonii.com%3A1337&amp;tr=udp%3A%2F%2Ftracker.coppersurfer.tk%3A6969&amp;tr=udp%3A%2F%2Fexodus.desync.com%3A6969","seeders":1,"leechers":1,"uploader":"juggs99","files":3,"time":1361067668,"description":"Source : DVDR-AN0NYM0US\n\nFormat : AVI\nFormat/Info : Audio Video Interleave\nFile size : 703 MiB\nDuration : 1h 55mn\nOverall bit rate : 853 Kbps\nWriting library : VirtualDub build 32842/release\n\nVideo\nID : 0\nFormat : MPEG-4 Visual\nFormat profile : Advanced Simple@L5\nFormat settings, BVOP : 4\nFormat settings, QPel : No\nFormat settings, GMC : No warppoints\nFormat settings, Matrix : Default (H.263)\nMuxing mode : Packed bitstream\nCodec ID : XVID\nCodec ID/Hint : XviD\nDuration : 1h 55mn\nBit rate : 716 Kbps\nWidth : 640 pixels\nHeight : 356 pixels\nDisplay aspect ratio : 16:9\nFrame rate : 23.976 fps\nColor space : YUV\nChroma subsampling : 4:2:0\nBit depth : 8 bits\nScan type : Progressive\nCompression mode : Lossy\nBits/(Pixel*Frame) : 0.131\nStream size : 590 MiB (84%)\nWriting library : XviD 64\n\nAudio\nID : 1\nFormat : MPEG Audio\nFormat version : Version 1\nFormat profile : Layer 3\nCodec ID : 55\nCodec ID/Hint : MP3\nDuration : 1h 55mn\nBit rate mode : Constant\nBit rate : 128 Kbps\nChannel(s) : 2 channels\nSampling rate : 44.1 KHz\nCompression mode : Lossy\nStream size : 105 MiB (15%)\nAlignment : Split accross interleaves\nInterleave, duration : 42 ms (1.00 video frame)\nInterleave, preload duration : 500 ms\nWriting library : LAME3.99r\nEncoding settings : -m s -V 4 -q 3 -lowpass 17 -b 128\n\n\nPlot\nAfter the birth of Renesmee, the Cullens gather other vampire clans in order to protect the child from a false allegation that puts the family in front of the Volturi.\n &lt;a href=&quot;\nhttp://www.shotpix.com/images/74263787077341195125.png&quot; rel=&quot;nofollow&quot; target=&quot;_NEW&quot;&gt;\nhttp://www.shotpix.com/images/74263787077341195125.png&lt;/a&gt; &lt;a href=&quot;\nhttp://www.shotpix.com/images/81737042161334341669.png&quot; rel=&quot;nofollow&quot; target=&quot;_NEW&quot;&gt;\nhttp://www.shotpix.com/images/81737042161334341669.png&lt;/a&gt; &lt;a href=&quot;\nhttp://www.shotpix.com/images/86461403381180477736.png&quot; rel=&quot;nofollow&quot; target=&quot;_NEW&quot;&gt;\nhttp://www.shotpix.com/images/86461403381180477736.png&lt;/a&gt; &lt;a href=&quot;\nhttp://www.shotpix.com/images/77275006925726256853.png&quot; rel=&quot;nofollow&quot; target=&quot;_NEW&quot;&gt;\nhttp://www.shotpix.com/images/77275006925726256853.png&lt;/a&gt;\n","torrent":{"xt":"urn:btih:a32b6807d3c5a26e02d33d610b8cd6caac0f34a5","amp;dn":"The.Twilight.Saga.Breaking.Dawn.Part.2.2012.DVDRip.XviD-juggs","amp;tr":["udp%3A%2F%2Ftracker.openbittorrent.com%3A80","udp%3A%2F%2Fopen.demonii.com%3A1337","udp%3A%2F%2Ftracker.coppersurfer.tk%3A6969","udp%3A%2F%2Fexodus.desync.com%3A6969"],"infoHash":"a32b6807d3c5a26e02d33d610b8cd6caac0f34a5","infoHashBuffer":{"type":"Buffer","data":[163,43,104,7,211,197,162,110,2,211,61,97,11,140,214,202,172,15,52,165]},"announce":[],"urlList":[]}}